<svg width="36" height="37" viewBox="0 0 36 37" fill="none" xmlns="http://www.w3.org/2000/svg">
<rect y="0.71875" width="36" height="36" rx="4" fill="#2E3192"/>
<g clip-path="url(#clip0_5_4537)">
<path d="M16.0216 12.2501L16.6612 12.8797C16.8631 13.0753 17.0231 13.3099 17.1314 13.5694C17.2396 13.8289 17.2939 14.1077 17.2908 14.3888V18.7061C17.2793 19.6223 17.0714 20.5254 16.6812 21.3544C16.2723 22.2542 15.6918 23.0655 14.9722 23.7429C14.2632 24.4181 13.3925 24.8999 12.4438 25.142C12.3811 25.1542 12.3166 25.1542 12.2539 25.142C12.0774 25.1429 11.9066 25.0789 11.7742 24.9621C11.705 24.9089 11.6485 24.8409 11.6087 24.7631C11.569 24.6854 11.547 24.5997 11.5444 24.5124C11.5269 24.3388 11.5731 24.1648 11.6743 24.0227C11.7672 23.8801 11.9096 23.7769 12.074 23.7329C13.0293 23.4349 13.8814 22.8738 14.5325 22.1139C15.1815 21.3466 15.6098 20.4174 15.7717 19.4256H12.2539C11.9686 19.4314 11.6852 19.3775 11.4218 19.2673C11.1585 19.1572 10.9211 18.9933 10.7249 18.786C10.5197 18.5866 10.3578 18.347 10.2495 18.0822C10.1412 17.8174 10.0887 17.533 10.0953 17.247V14.4088C10.09 14.1244 10.1432 13.8419 10.2515 13.5789C10.3598 13.3159 10.5209 13.0779 10.7249 12.8797C10.9231 12.6757 11.1611 12.5146 11.4241 12.4063C11.6871 12.298 11.9695 12.2449 12.2539 12.2501H16.0216ZM11.5444 17.5568L11.7542 17.7766C11.8157 17.8484 11.8925 17.9055 11.979 17.9436C12.0655 17.9816 12.1595 17.9997 12.2539 17.9965H15.8417V14.4088C15.8427 14.3126 15.8247 14.2171 15.7886 14.128C15.7526 14.0388 15.6993 13.9576 15.6318 13.8891C15.5637 13.8154 15.4798 13.7581 15.3862 13.7218C15.2927 13.6854 15.1921 13.6708 15.0922 13.6792H12.2539C12.1615 13.6773 12.0696 13.6941 11.9838 13.7284C11.8979 13.7627 11.8199 13.814 11.7542 13.8791C11.6861 13.945 11.6323 14.0244 11.5962 14.112C11.5601 14.1997 11.5424 14.2939 11.5444 14.3888V17.5568ZM24.6462 12.2501L25.2758 12.8797C25.4777 13.0753 25.6377 13.3099 25.746 13.5694C25.8542 13.8289 25.9085 14.1077 25.9054 14.3888V18.7061C25.8939 19.6223 25.686 20.5254 25.2958 21.3544C24.8942 22.2583 24.3127 23.071 23.5868 23.7429C22.8878 24.4158 22.0274 24.8977 21.0884 25.142C21.029 25.1541 20.9679 25.1541 20.9085 25.142C20.7285 25.1454 20.5538 25.0812 20.4188 24.9621C20.3528 24.906 20.2986 24.8373 20.2591 24.7602C20.2197 24.683 20.1958 24.5988 20.189 24.5124C20.1757 24.3392 20.2215 24.1666 20.3189 24.0227C20.4118 23.8801 20.5542 23.7769 20.7186 23.7329C21.6789 23.4296 22.5321 22.8573 23.1771 22.0839C23.8293 21.3175 24.261 20.3883 24.4263 19.3956H20.8785C20.5932 19.4014 20.3097 19.3475 20.0464 19.2374C19.7831 19.1272 19.5457 18.9633 19.3495 18.756C19.148 18.5601 18.9883 18.3254 18.8801 18.066C18.7719 17.8066 18.7174 17.528 18.7199 17.247V14.4088C18.7146 14.1244 18.7678 13.8419 18.8761 13.5789C18.9844 13.3159 19.1455 13.0779 19.3495 12.8797C19.5477 12.6757 19.7857 12.5146 20.0487 12.4063C20.3117 12.298 20.5941 12.2449 20.8785 12.2501H24.6462ZM20.159 17.5568L20.3688 17.7766C20.4331 17.8476 20.5119 17.904 20.5998 17.9419C20.6878 17.9798 20.7828 17.9984 20.8785 17.9965H24.4663V14.4088C24.4673 14.3126 24.4493 14.2171 24.4132 14.128C24.3772 14.0388 24.3239 13.9576 24.2564 13.8891C24.1905 13.8209 24.1111 13.7671 24.0234 13.731C23.9358 13.6949 23.8415 13.6773 23.7467 13.6792H20.8785C20.6891 13.6771 20.5063 13.7488 20.3688 13.8791C20.3007 13.945 20.2469 14.0244 20.2108 14.112C20.1747 14.1997 20.157 14.2939 20.159 14.3888V17.5568Z" fill="white" fill-opacity="0.9"/>
</g>
<defs>
<clipPath id="clip0_5_4537">
<rect width="15.8125" height="12.9219" fill="white" transform="translate(10.0938 12.25)"/>
</clipPath>
</defs>
</svg>
